HIERARCHY
ROOT Hips
{
  OFFSET 13.6774 106.653 -34.4427
  CHANNELS 6 Xposition Yposition Zposition Zrotation Xrotation Yrotation
  JOINT ToSpine
  {
    OFFSET -2.69724 7.43032 -0.144315
    CHANNELS 3 Zrotation Xrotation Yrotation
    JOINT Spine
    {
      OFFSET -0.0310711 10.7595 1.96963
      CHANNELS 3 Zrotation Xrotation Yrotation
      JOINT Spine1
      {
        OFFSET 19.9056 3.91189 0.764692
        CHANNELS 3 Zrotation Xrotation Yrotation
        JOINT Neck
        {
          OFFSET 25.9749 7.03908 -0.130764
          CHANNELS 3 Zrotation Xrotation Yrotation
          JOINT Head
          {
            OFFSET 9.52751 0.295786 -0.907742
            CHANNELS 3 Zrotation Xrotation Yrotation
            End Site
            {
              OFFSET 16.4037 0.713936 2.7358
            }
          }
        }
        JOINT LeftShoulder
        {
          OFFSET 17.7449 4.33886 11.7777
          CHANNELS 3 Zrotation Xrotation Yrotation
          JOINT LeftArm
          {
            OFFSET 0.911315 1.27913 9.80584
            CHANNELS 3 Zrotation Xrotation Yrotation
            JOINT LeftForeArm
            {
              OFFSET 28.6126 1.18197 -3.53199
              CHANNELS 3 Zrotation Xrotation Yrotation
              JOINT LeftHand
              {
                OFFSET 27.5088 0.0218783 0.327423
                CHANNELS 3 Zrotation Xrotation Yrotation
                End Site
                {
                  OFFSET 18.6038 -0.000155887 0.382096
                }
              }
            }
          }
        }
        JOINT RightShoulder
        {
          OFFSET 17.1009 2.89543 -12.2328
          CHANNELS 3 Zrotation Xrotation Yrotation
          JOINT RightArm
          {
            OFFSET 1.4228 0.178766 -10.211
            CHANNELS 3 Zrotation Xrotation Yrotation
            JOINT RightForeArm
            {
              OFFSET 28.733 1.87905 2.64907
              CHANNELS 3 Zrotation Xrotation Yrotation
              JOINT RightHand
              {
                OFFSET 27.4588 0.290562 -0.101845
                CHANNELS 3 Zrotation Xrotation Yrotation
                End Site
                {
                  OFFSET 17.8396 -0.255518 -0.000602873
                }
              }
            }
          }
        }
      }
    }
  }
  JOINT LeftUpLeg
  {
    OFFSET -5.61296 -2.22332 -10.2353
    CHANNELS 3 Zrotation Xrotation Yrotation
    JOINT LeftLeg
    {
      OFFSET 2.56703 -44.7417 -7.93097
      CHANNELS 3 Zrotation Xrotation Yrotation
      JOINT LeftFoot
      {
        OFFSET 3.16933 -46.5642 -3.96578
        CHANNELS 3 Zrotation Xrotation Yrotation
        JOINT LeftToeBase
        {
          OFFSET 0.346054 -6.02161 12.8035
          CHANNELS 3 Zrotation Xrotation Yrotation
          End Site
          {
            OFFSET 0.134235 -1.35082 5.13018
          }
        }
      }
    }
  }
  JOINT RightUpLeg
  {
    OFFSET -5.7928 -1.72406 10.6446
    CHANNELS 3 Zrotation Xrotation Yrotation
    JOINT RightLeg
    {
      OFFSET -2.57161 -44.7178 -7.85259
      CHANNELS 3 Zrotation Xrotation Yrotation
      JOINT RightFoot
      {
        OFFSET -3.10148 -46.5936 -4.03391
        CHANNELS 3 Zrotation Xrotation Yrotation
        JOINT RightToeBase
        {
          OFFSET -0.0828122 -6.13587 12.8035
          CHANNELS 3 Zrotation Xrotation Yrotation
          End Site
          {
            OFFSET -0.131328 -1.35082 5.13018
          }
        }
      }
    }
  }
}
MOTION
Frames: 16
Frame Time: 0.03333333333333333
0.0000 93.1000 0.0000 53.5343 -36.8733 -28.9016 -71.0142 -0.0468 88.0010 89.0036 67.0349 -5.2542 -2.9292 17.0709 1.2519 -166.8470 19.7406 174.5386 -160.9328 59.7051 -173.5391 0.1262 -12.7718 -27.8904 -83.6099 45.0540 -76.9505 15.2372 -11.4470 -123.5387 0.1417 0.0964 0.3540 -2.4566 6.8662 43.5008 -67.6917 -45.6701 50.6322 14.6020 -0.9338 87.9152 0.3607 -0.0052 0.0305 -65.4488 -9.1370 88.7976 -3.7054 43.1412 -17.0376 -7.9710 5.2054 1.5020 2.2507 -5.9009 -0.5020 -23.9080 1.3728 85.1346 0.5912 19.5942 18.2319 9.7512 11.0431 -2.4606 2.1538 -15.8421 -19.5705 
0.0000 93.1000 0.0000 50.5776 -38.8058 -32.7107 -70.9959 -0.0889 88.0052 85.6481 68.0737 -4.4617 -3.4985 17.4721 1.6027 -168.3527 19.8862 174.3107 -160.5605 60.0025 -173.0168 0.3457 -12.6772 -28.1721 -81.3014 45.0544 -77.8254 14.2428 -10.0452 -121.5141 0.1257 -0.1298 0.5947 -2.5163 6.7535 43.7851 -68.7587 -42.6100 52.4143 13.8964 -0.8926 88.5347 0.7085 -0.2120 0.3391 -61.9133 -10.6826 90.7415 -3.2322 39.5896 -16.2635 -5.9756 1.6602 0.8512 5.2552 -12.1310 2.2356 -21.2525 3.9895 94.8273 2.0158 34.7911 9.9994 3.7053 4.7510 -0.9907 1.1346 -24.0165 -25.1093 
0.0000 93.1000 0.0000 52.2538 -41.3252 -29.3869 -70.9761 -0.0116 87.9532 97.5281 68.6345 -13.9580 -4.9225 18.7477 2.1985 -166.2983 20.6638 173.3439 -157.5184 60.1677 -174.7086 0.0294 -13.2706 -29.2835 -80.4974 45.6576 -74.9063 13.8164 -7.1514 -114.7274 0.0756 0.2121 0.4457 -2.6287 6.2550 44.5178 -67.7031 -39.6860 59.4367 13.9139 -1.0215 86.5387 0.4948 0.1988 0.1333 -58.6568 -10.0679 91.2995 -4.5383 41.6217 -13.9685 -5.3454 -3.3622 -0.1498 7.9617 -18.3809 2.7820 -22.8754 5.2178 94.4239 3.1011 52.9035 3.4138 -2.2737 1.2399 0.2238 0.8099 -26.5895 -22.6030 
0.0000 93.1000 0.0000 54.3619 -42.5953 -27.7377 -70.9851 -0.0477 87.9255 107.5903 69.0030 -23.9104 -6.8672 19.4524 3.5202 -164.6646 20.9254 173.7324 -156.9322 60.9332 -174.1187 0.0526 -13.6366 -30.8277 -78.7066 46.6719 -73.0653 16.1330 -4.8742 -103.4388 -0.3365 -0.0411 0.4153 -2.6942 5.9857 45.5237 -67.7728 -36.1578 65.8940 14.4382 -1.8698 84.7735 0.1861 -0.0703 0.4197 -52.4931 -8.9072 90.9382 -5.0890 47.2079 -12.1895 -1.8224 -14.3360 -1.4427 5.4396 -14.0220 5.1731 -26.7665 4.0664 92.5889 6.2677 68.2616 -8.4503 -5.1165 -2.6371 0.5833 2.0539 -22.2983 -15.8862 
0.0000 93.1000 0.0000 53.2062 -43.8285 -27.6395 -71.0100 -0.0791 87.9311 107.6646 69.7723 -24.4053 -6.4746 20.3892 4.0271 -165.0986 21.9415 172.8185 -155.3424 61.0849 -177.0172 0.1181 -13.6220 -31.7650 -77.4363 47.9325 -71.8992 17.7672 -1.5631 -91.4203 -0.0188 -0.2782 0.4045 -2.8373 6.0723 46.4352 -68.0779 -31.8696 74.1251 14.3017 -2.3193 83.8304 0.4788 -0.3729 0.2126 -42.1989 -8.0643 90.5633 -6.1000 56.1854 -14.0864 1.0325 -18.8586 -2.0660 5.2498 -15.2448 15.0599 -31.2058 2.0857 91.8923 14.1395 78.7341 -18.7479 -7.0259 -1.6586 0.4963 1.8269 -23.7104 -15.7090 
0.0000 93.1000 0.0000 56.2040 -44.5721 -27.4481 -71.0421 -0.0682 87.9586 107.6879 71.2644 -25.3616 -5.0416 21.6302 4.0267 -165.8579 22.9121 170.5933 -155.2875 61.6805 -176.7824 0.0141 -13.9434 -32.2933 -73.9196 50.0218 -69.4086 15.5314 1.9232 -80.9217 -0.1989 -0.2913 0.2984 -2.9014 6.2555 46.9786 -66.6982 -29.1603 81.9291 14.8821 -0.6972 85.8074 0.5592 -0.4033 -0.0538 -34.5039 -7.9001 91.3458 -8.4044 60.2732 -13.9874 4.4782 -16.7605 -2.3343 5.9910 -16.9349 21.3009 -41.9173 -0.7238 91.8252 26.7912 82.9170 -28.2017 -9.5284 -0.9204 0.5622 2.2153 -22.7860 -9.7826 
0.0000 93.1000 0.0000 58.8656 -46.6228 -25.6012 -71.0478 -0.0691 88.0525 113.6666 72.1051 -30.6121 -5.3598 23.1800 3.9053 -164.4795 24.1486 171.6618 -153.3459 63.2146 181.8725 -0.1889 -14.8352 -32.3164 -69.4267 53.0310 -64.7577 12.8526 2.3170 -79.5738 -0.1988 -0.0270 0.3701 -2.4530 6.5652 42.7299 -65.6162 -31.6385 88.7227 15.2528 -0.0217 91.6487 0.3513 -0.2358 0.3609 -31.3633 -6.8265 91.2889 -6.4472 59.1070 -7.0144 6.3823 -15.9080 -2.6366 3.2434 -11.0099 13.3961 -55.4816 -3.2587 91.2559 13.1834 77.0500 -16.7653 -9.4633 2.3816 0.3801 1.9885 -19.2666 -2.1778 
0.0000 93.1000 0.0000 56.0116 -47.9147 -28.6509 -71.0536 -0.0309 88.0537 110.4264 74.8134 -26.2112 -4.8451 25.2356 3.0683 -161.6045 25.7225 170.4649 -153.8525 64.7533 179.1321 -0.1152 -12.9814 -30.9564 -65.4659 56.2248 -62.1254 13.9907 1.8986 -80.5008 -0.1127 0.0832 0.3091 -2.3976 6.7976 40.9210 -64.7705 -34.8613 93.3147 15.6645 2.1153 98.4460 0.4836 -0.0427 0.0964 -27.8262 -4.8789 90.8334 -3.4039 52.1665 -5.6029 4.2421 -9.1193 -1.8115 1.9488 -6.7910 4.5914 -64.8960 -4.7805 91.8372 4.6351 64.7242 -8.9715 -2.0757 7.3114 -0.9056 0.9491 -8.6299 -1.7607 
0.0000 93.1000 0.0000 53.4961 -46.7845 -28.9932 -71.0601 0.0146 88.0646 108.6085 76.8540 -21.4435 -5.1891 27.1900 1.8160 -161.4067 27.8818 170.8942 -152.1135 66.9202 177.2663 -0.1399 -11.8317 -27.9584 -63.3348 59.8688 -58.8214 13.1330 0.4813 -83.7108 -0.0445 0.2371 0.0562 -2.4879 6.7282 39.4575 -63.6390 -35.1967 96.4531 16.4108 4.5428 105.0630 0.2768 0.1598 -0.1227 -27.8994 -2.8213 87.8911 -3.4220 36.0026 -8.8547 -1.1751 3.5245 0.0100 0.9630 -4.1243 0.5671 -72.2144 -2.7119 91.6105 2.2838 49.4603 -4.9265 -0.6857 10.0757 -1.1096 -0.2052 -2.6135 -4.1905 
0.0000 93.1000 0.0000 51.9993 -44.2727 -27.6984 -71.0755 0.0372 88.0799 106.2886 77.1098 -15.1221 -4.9333 27.5407 -0.1980 -162.6336 30.0796 171.7388 -151.1624 69.0021 173.4695 -0.0916 -11.2994 -26.0672 -65.2674 62.5441 -52.5919 13.1514 -0.4678 -86.9718 0.2047 0.3082 -0.1828 -2.5002 6.2855 39.0738 -62.4899 -35.7610 96.9959 15.3786 7.3595 111.7104 0.5150 0.2504 -0.2591 -26.2540 1.3353 92.3022 -1.0123 22.9626 -22.2404 -6.4680 12.7699 1.5867 2.6304 -9.3170 6.7132 -73.4749 0.0878 91.4236 1.1115 39.3176 0.5959 -4.6533 11.2255 -0.5298 0.4969 -9.5389 -5.5233 
0.0000 93.1000 0.0000 46.6254 -42.6429 -29.7670 -71.1072 -0.0045 88.1440 88.4516 77.2886 5.4875 -1.8685 27.6425 -1.7155 -163.4319 32.0826 170.3533 -149.7286 71.1560 171.9809 0.1639 -11.2748 -26.7053 -66.8920 62.8218 -49.6670 12.4626 -0.4829 -88.9305 -0.2780 -0.0666 -0.4522 -2.4441 6.1426 39.5081 -63.8483 -37.2734 95.6406 17.1089 9.0095 115.9279 0.5167 -0.0244 -0.2210 -19.9620 2.2114 87.3909 -2.2266 29.8737 -18.2771 -4.7075 8.3020 1.2013 4.3068 -12.0251 13.9009 -70.3606 3.1933 91.2533 0.7047 33.6637 -0.5747 -6.4188 9.1393 -0.2436 0.8568 -9.6810 -3.0552 
0.0000 93.1000 0.0000 49.6040 -41.8596 -28.6537 -71.0971 0.0470 88.0997 96.5953 75.9505 -3.7695 -3.2644 26.4158 0.2726 -163.4518 33.8851 171.5511 -152.5057 73.1270 174.0380 -0.1260 -11.5314 -27.8783 -71.6048 61.0275 -46.8082 15.6328 -0.3372 -88.6738 -0.0278 0.2329 -0.1931 -2.3061 6.3876 40.4974 -63.7320 -38.1260 92.1308 16.1587 8.2252 115.4570 0.1390 0.3110 -0.2181 -20.6138 1.0654 86.7249 -3.7724 42.6608 -12.8204 -6.0892 4.0995 0.7886 6.0034 -14.9890 14.3213 -67.7122 2.1188 87.5456 -0.5265 34.6028 -1.3104 -9.7138 5.8322 0.3611 1.5452 -12.5558 -3.7659 
0.0000 93.1000 0.0000 53.7790 -41.3674 -28.9936 -71.0818 -0.0006 88.0768 110.5975 73.9695 -23.7034 -6.1718 25.3771 2.6834 -161.3388 35.7957 169.4808 -153.3481 74.9773 175.8666 0.1390 -11.9109 -28.9768 -70.0915 59.7211 -52.7709 14.0127 -0.3144 -87.5690 0.0356 0.0788 0.0971 -2.2807 6.0479 42.3900 -66.5408 -37.1035 85.9536 20.4464 7.6584 109.8166 0.2462 0.0438 0.0870 -24.7052 0.0428 91.3662 -6.2293 57.9838 -5.9030 -5.6454 0.4835 0.6594 2.2995 -9.3039 12.2033 -64.9063 0.0657 89.4308 0.4685 37.8158 -3.3355 -6.8433 2.2808 0.0366 0.7608 -12.3150 -2.1669 
0.0000 93.1000 0.0000 54.8420 -40.3858 -30.1661 -71.0815 -0.0309 88.0975 108.4519 72.9340 -25.1658 -6.1670 23.8989 2.8820 -161.3109 35.9874 168.4400 -150.9422 75.2587 174.2936 0.1952 -12.5424 -31.1521 -71.8983 56.8731 -54.8908 13.7914 -0.1903 -88.6517 -0.1365 0.0351 0.5094 -2.2636 5.9513 44.1188 -68.7091 -36.0170 80.8175 21.4522 4.9004 102.7443 0.5908 -0.0845 0.1125 -26.6595 0.2048 93.5140 -12.2486 71.7517 1.8900 -4.9500 2.4392 0.7579 2.5834 -10.4595 10.4507 -58.0807 1.1030 90.3324 0.8430 40.8569 -1.1790 -5.0439 -1.7110 0.1960 2.4432 -32.6599 -13.6172 
0.0000 93.1000 0.0000 55.9484 -40.2614 -30.6394 -71.1071 -0.0075 88.1000 105.4129 72.0507 -22.7573 -5.2509 22.8245 2.6666 -162.3999 36.0748 169.8826 -153.7887 74.9166 175.3562 -0.0864 -13.4134 -32.8073 -72.7117 52.6016 -57.8577 15.2931 -0.9392 -89.7443 -0.1940 0.0377 0.2435 -2.2706 5.8665 45.1172 -68.5263 -36.2061 77.0093 17.5576 2.0275 95.4486 0.3070 0.0916 -0.0218 -32.7219 1.0801 94.6827 -26.3011 79.8302 17.1250 -4.8272 3.3737 0.8057 2.0940 -8.2637 8.0023 -50.9780 1.4020 87.6255 1.0612 47.2859 -7.3905 -11.3977 -13.7913 1.8150 2.5650 -27.8312 -0.5240 
0.0000 93.1000 0.0000 56.0903 -39.5433 -28.0259 -71.1421 -0.0913 88.0818 104.2425 69.8859 -19.9524 -5.1756 20.8578 1.6927 -162.3563 33.9879 169.8866 -154.0501 73.2154 174.6984 0.0600 -13.6806 -34.1537 -73.8066 48.9614 -64.6255 12.7439 -1.1613 -90.5753 -0.3292 -0.3547 0.4020 -2.4644 5.8802 46.2682 -67.5568 -35.1784 75.2035 13.8835 -1.2872 85.8398 0.8309 -0.3011 0.0619 -40.4759 1.9400 93.5099 -43.7393 82.8114 33.1573 -4.0774 5.0948 1.1877 1.8463 -8.2124 7.8363 -40.8687 4.2288 87.7667 2.8846 53.7425 -1.0757 -5.3175 -21.9919 1.0741 2.1785 -14.6204 -21.6978 
